<?xml version="1.0" standalone="no"?>
<!DOCTYPE svg PUBLIC "-//W3C//DTD SVG 20010904//EN"
 "http://www.w3.org/TR/2001/REC-SVG-20010904/DTD/svg10.dtd">
<svg version="1.0" xmlns="http://www.w3.org/2000/svg"
 width="800.000000pt" height="800.000000pt" viewBox="0 0 800.000000 800.000000"
 preserveAspectRatio="xMidYMid meet">

<g transform="translate(0.000000,800.000000) scale(0.100000,-0.100000)"
fill="#000000" stroke="none">
<path d="M5348 7650 c-70 -11 -3242 -619 -3450 -661 -347 -71 -500 -137 -657
-284 -217 -205 -325 -474 -307 -764 9 -152 28 -256 316 -1764 144 -749 338
-1760 431 -2247 93 -487 176 -905 184 -930 7 -25 17 -72 20 -105 20 -177 71
-292 179 -400 115 -114 251 -169 416 -168 56 1 553 93 1925 357 1018 195 1881
364 1919 375 119 35 194 79 281 166 93 92 145 182 175 301 30 117 26 207 -21
470 l-42 230 60 75 c77 95 98 131 130 221 31 89 40 210 24 328 -10 77 -721
3805 -792 4153 -52 254 -98 356 -212 466 -85 82 -172 134 -277 165 -66 20
-223 28 -302 16z m753 -5752 c12 -68 23 -141 23 -163 l1 -39 -60 -14 c-77 -17
-3493 -672 -3507 -672 -16 0 -4 86 22 153 39 103 152 204 265 237 42 12 3187
618 3216 619 14 1 21 -23 40 -121z"/>
</g>
</svg>
