<?xml version="1.0" encoding="utf-8"?>
<!-- Generator: Adobe Illustrator 25.0.0, SVG Export Plug-In . SVG Version: 6.00 Build 0)  -->
<svg version="1.1" id="Layer_1" xmlns="http://www.w3.org/2000/svg" xmlns:xlink="http://www.w3.org/1999/xlink" x="0px" y="0px"
	 viewBox="0 0 24 24" style="enable-background:new 0 0 24 24;" xml:space="preserve">
<style type="text/css">
	.st0{fill:#67788A;}
</style>
<path class="st0" d="M12,0C5.4,0,0,5.4,0,12s5.4,12,12,12s12-5.4,12-12S18.6,0,12,0z M8.3,17.9h-3V8.7h3V17.9z M6.8,8L6.8,8
	C5.9,8,5.3,7.3,5.3,6.5c0-0.9,0.6-1.5,1.5-1.5c0.9,0,1.5,0.7,1.5,1.5C8.3,7.3,7.8,8,6.8,8z M19,17.9h-3v-4.8c0-1.2-0.4-2-1.5-2
	c-0.8,0-1.3,0.6-1.5,1.1c-0.1,0.2-0.1,0.5-0.1,0.7v5h-3c0,0,0-8.1,0-8.9h3v1.3c0.4-0.6,1.1-1.5,2.7-1.5c2,0,3.4,1.3,3.4,4V17.9z"/>
</svg>
