<?xml version="1.0" standalone="no"?>
<!DOCTYPE svg PUBLIC "-//W3C//DTD SVG 20010904//EN"
 "http://www.w3.org/TR/2001/REC-SVG-20010904/DTD/svg10.dtd">
<svg version="1.0" xmlns="http://www.w3.org/2000/svg"
 width="512.000000pt" height="512.000000pt" viewBox="0 0 512.000000 512.000000"
 preserveAspectRatio="xMidYMid meet">

<g transform="translate(0.000000,512.000000) scale(0.100000,-0.100000)"
fill="#000000" stroke="none">
<path d="M1885 4657 c-442 -325 -631 -469 -633 -484 -2 -16 12 -33 55 -65 188
-144 1200 -882 1215 -886 10 -2 25 1 33 8 13 11 15 59 15 321 l0 309 83 -5
c324 -24 662 -154 902 -348 753 -609 823 -1710 152 -2396 -237 -242 -516 -395
-857 -468 -121 -25 -476 -25 -605 1 -115 23 -307 87 -399 133 -471 235 -772
625 -890 1152 -28 127 -56 183 -117 235 -84 71 -220 90 -320 44 -76 -35 -111
-67 -149 -139 -29 -55 -33 -72 -33 -133 2 -155 89 -451 201 -676 337 -681 969
-1137 1722 -1242 142 -19 479 -16 615 6 493 80 903 286 1246 626 194 192 330
385 450 635 146 306 211 599 212 950 0 220 -17 360 -68 562 -216 840 -904
1482 -1760 1642 -96 18 -296 41 -362 41 l-23 0 0 308 c0 316 -2 332 -39 332
-9 0 -299 -209 -646 -463z"/>
</g>
</svg>
